<svg width="60" height="36" viewBox="0 0 60 36" fill="none" xmlns="http://www.w3.org/2000/svg">
<path d="M30.96 12C30.7 12.008 30.45 12.116 30.266 12.304L24.99 17.564L21.74 14.324C20.83 13.376 19.36 14.84 20.31 15.748L24.276 19.704C24.67 20.098 25.31 20.098 25.706 19.704L31.696 13.73C32.356 13.09 31.87 12 30.962 12H30.96ZM1 20H7C7.554 20 8 20.446 8 21C8 21.554 7.554 22 7 22H1C0.446 22 0 21.554 0 21C0 20.446 0.446 20 1 20ZM1 12H7C7.554 12 8 12.446 8 13C8 13.554 7.554 14 7 14H1C0.446 14 0 13.554 0 13C0 12.446 0.446 12 1 12ZM1 4H7C7.554 4 8 4.446 8 5C8 5.554 7.554 6 7 6H1C0.446 6 0 5.554 0 5C0 4.446 0.446 4 1 4ZM49 26C46.25 26 44 28.25 44 31C44 33.75 46.25 36 49 36C51.75 36 54 33.75 54 31C54 28.25 51.75 26 49 26ZM49 28C50.668 28 52 29.332 52 31C52 32.668 50.668 34 49 34C47.332 34 46 32.668 46 31C46 29.332 47.332 28 49 28ZM23 26C20.25 26 18 28.25 18 31C18 33.75 20.25 36 23 36C25.75 36 28 33.75 28 31C28 28.25 25.75 26 23 26ZM23 28C24.668 28 26 29.332 26 31C26 32.668 24.668 34 23 34C21.332 34 20 32.668 20 31C20 29.332 21.332 28 23 28ZM13 0C11.356 0 10 1.356 10 3V25C10 26.644 11.356 28 13 28H17C18.352 28.02 18.352 25.98 17 26H13C12.428 26 12 25.572 12 25V3C12 2.428 12.428 2 13 2H39C39.572 2 40 2.428 40 3V26H29C27.68 26 27.704 28.02 29 28H43C44.32 28 44.308 26 43 26H42V8H50.454L58 19.792V25C58 25.572 57.572 26 57 26H55C53.692 26 53.692 28 55 28H57C58.644 28 60 26.644 60 25V19.5C60 19.31 59.946 19.12 59.844 18.96L51.844 6.46C51.66 6.174 51.344 6 51 6H42V3C42 1.356 40.644 0 39 0H13Z" fill="#F37321"/>
</svg>
